<?xml version="1.0" encoding="UTF-8" standalone="no"?>
<!DOCTYPE svg PUBLIC "-//W3C//DTD SVG 1.1//EN" "http://www.w3.org/Graphics/SVG/1.1/DTD/svg11.dtd">
<svg width="100%" height="100%" viewBox="0 0 512 512" version="1.1" xmlns="http://www.w3.org/2000/svg" xmlns:xlink="http://www.w3.org/1999/xlink" xml:space="preserve" xmlns:serif="http://www.serif.com/" style="fill-rule:evenodd;clip-rule:evenodd;stroke-linejoin:round;stroke-miterlimit:2;">
    <g transform="matrix(37.7051,0,0,37.7051,-26.1514,-45.2891)">
        <rect x="1.989" y="2.993" width="0.995" height="0.988" style="fill:rgb(253,247,237);"/>
    </g>
    <g transform="matrix(37.7051,0,0,37.7051,11.5537,-45.2891)">
        <rect x="1.989" y="2.993" width="0.995" height="0.988" style="fill:rgb(42,42,58);"/>
    </g>
    <g transform="matrix(37.7051,0,0,37.7051,49.2588,-45.2891)">
        <rect x="1.989" y="2.993" width="0.995" height="0.988" style="fill:rgb(42,42,58);"/>
    </g>
    <g transform="matrix(37.7051,0,0,37.7051,86.9639,-45.2891)">
        <rect x="1.989" y="2.993" width="0.995" height="0.988" style="fill:rgb(42,42,58);"/>
    </g>
    <g transform="matrix(37.7051,0,0,37.7051,124.669,-7.58396)">
        <rect x="1.989" y="2.993" width="0.995" height="0.988" style="fill:rgb(42,42,58);"/>
    </g>
    <g transform="matrix(37.7051,0,0,37.7051,162.374,30.1211)">
        <rect x="1.989" y="2.993" width="0.995" height="0.988" style="fill:rgb(42,42,58);"/>
    </g>
    <g transform="matrix(37.7051,0,0,37.7051,200.079,-7.58396)">
        <rect x="1.989" y="2.993" width="0.995" height="0.988" style="fill:rgb(42,42,58);"/>
    </g>
    <g transform="matrix(37.7051,0,0,37.7051,237.784,-45.2891)">
        <rect x="1.989" y="2.993" width="0.995" height="0.988" style="fill:rgb(42,42,58);"/>
    </g>
    <g transform="matrix(37.7051,0,0,37.7051,275.489,-45.2891)">
        <rect x="1.989" y="2.993" width="0.995" height="0.988" style="fill:rgb(42,42,58);"/>
    </g>
    <g transform="matrix(37.7051,0,0,37.7051,313.195,-45.2891)">
        <rect x="1.989" y="2.993" width="0.995" height="0.988" style="fill:rgb(42,42,58);"/>
    </g>
    <g transform="matrix(37.7051,0,0,37.7051,350.9,-7.58396)">
        <rect x="1.989" y="2.993" width="0.995" height="0.988" style="fill:rgb(42,42,58);"/>
    </g>
    <g transform="matrix(37.7051,0,0,37.7051,350.9,30.1211)">
        <rect x="1.989" y="2.993" width="0.995" height="0.988" style="fill:rgb(42,42,58);"/>
    </g>
    <g transform="matrix(37.7051,0,0,37.7051,350.9,67.8262)">
        <rect x="1.989" y="2.993" width="0.995" height="0.988" style="fill:rgb(42,42,58);"/>
    </g>
    <g transform="matrix(37.7051,0,0,37.7051,350.9,105.531)">
        <rect x="1.989" y="2.993" width="0.995" height="0.988" style="fill:rgb(42,42,58);"/>
    </g>
    <g transform="matrix(37.7051,0,0,37.7051,313.195,143.236)">
        <rect x="1.989" y="2.993" width="0.995" height="0.988" style="fill:rgb(42,42,58);"/>
    </g>
    <g transform="matrix(37.7051,0,0,37.7051,275.489,180.942)">
        <rect x="1.989" y="2.993" width="0.995" height="0.988" style="fill:rgb(42,42,58);"/>
    </g>
    <g transform="matrix(37.7051,0,0,37.7051,237.784,218.647)">
        <rect x="1.989" y="2.993" width="0.995" height="0.988" style="fill:rgb(42,42,58);"/>
    </g>
    <g transform="matrix(37.7051,0,0,37.7051,200.079,256.352)">
        <rect x="1.989" y="2.993" width="0.995" height="0.988" style="fill:rgb(42,42,58);"/>
    </g>
    <g transform="matrix(37.7051,0,0,37.7051,162.374,294.057)">
        <rect x="1.989" y="2.993" width="0.995" height="0.988" style="fill:rgb(42,42,58);"/>
    </g>
    <g transform="matrix(37.7051,0,0,37.7051,124.669,256.352)">
        <rect x="1.989" y="2.993" width="0.995" height="0.988" style="fill:rgb(42,42,58);"/>
    </g>
    <g transform="matrix(37.7051,0,0,37.7051,86.9639,218.647)">
        <rect x="1.989" y="2.993" width="0.995" height="0.988" style="fill:rgb(42,42,58);"/>
    </g>
    <g transform="matrix(37.7051,0,0,37.7051,49.2588,180.942)">
        <rect x="1.989" y="2.993" width="0.995" height="0.988" style="fill:rgb(42,42,58);"/>
    </g>
    <g transform="matrix(37.7051,0,0,37.7051,11.5537,143.236)">
        <rect x="1.989" y="2.993" width="0.995" height="0.988" style="fill:rgb(42,42,58);"/>
    </g>
    <g transform="matrix(37.7051,0,0,37.7051,-26.1514,105.531)">
        <rect x="1.989" y="2.993" width="0.995" height="0.988" style="fill:rgb(42,42,58);"/>
    </g>
    <g transform="matrix(37.7051,0,0,37.7051,-26.1514,67.8262)">
        <rect x="1.989" y="2.993" width="0.995" height="0.988" style="fill:rgb(42,42,58);"/>
    </g>
    <g transform="matrix(37.7051,0,0,37.7051,-26.1514,30.1211)">
        <rect x="1.989" y="2.993" width="0.995" height="0.988" style="fill:rgb(42,42,58);"/>
    </g>
    <g transform="matrix(37.7051,0,0,37.7051,-26.1514,-7.58396)">
        <rect x="1.989" y="2.993" width="0.995" height="0.988" style="fill:rgb(42,42,58);"/>
    </g>
    <g transform="matrix(37.7051,0,0,37.7051,11.5537,-7.58396)">
        <rect x="1.989" y="2.993" width="0.995" height="0.988" style="fill:rgb(218,78,56);"/>
    </g>
    <g transform="matrix(37.7051,0,0,37.7051,49.2588,-7.58396)">
        <rect x="1.989" y="2.993" width="0.995" height="0.988" style="fill:rgb(218,78,56);"/>
    </g>
    <g transform="matrix(37.7051,0,0,37.7051,86.9639,-7.58396)">
        <rect x="1.989" y="2.993" width="0.995" height="0.988" style="fill:rgb(218,78,56);"/>
    </g>
    <g transform="matrix(37.7051,0,0,37.7051,11.5537,30.1211)">
        <rect x="1.989" y="2.993" width="0.995" height="0.988" style="fill:rgb(218,78,56);"/>
    </g>
    <g transform="matrix(37.7051,0,0,37.7051,49.2588,30.1211)">
        <rect x="1.989" y="2.993" width="0.995" height="0.988" style="fill:rgb(218,78,56);"/>
    </g>
    <g transform="matrix(37.7051,0,0,37.7051,86.9639,30.1211)">
        <rect x="1.989" y="2.993" width="0.995" height="0.988" style="fill:rgb(218,78,56);"/>
    </g>
    <g transform="matrix(37.7051,0,0,37.7051,124.669,30.1211)">
        <rect x="1.989" y="2.993" width="0.995" height="0.988" style="fill:rgb(218,78,56);"/>
    </g>
    <g transform="matrix(37.7051,0,0,37.7051,11.5537,67.8262)">
        <rect x="1.989" y="2.993" width="0.995" height="0.988" style="fill:rgb(218,78,56);"/>
    </g>
    <g transform="matrix(37.7051,0,0,37.7051,49.2588,67.8262)">
        <rect x="1.989" y="2.993" width="0.995" height="0.988" style="fill:rgb(218,78,56);"/>
    </g>
    <g transform="matrix(37.7051,0,0,37.7051,86.9639,67.8262)">
        <rect x="1.989" y="2.993" width="0.995" height="0.988" style="fill:rgb(218,78,56);"/>
    </g>
    <g transform="matrix(37.7051,0,0,37.7051,124.669,67.8262)">
        <rect x="1.989" y="2.993" width="0.995" height="0.988" style="fill:rgb(218,78,56);"/>
    </g>
    <g transform="matrix(37.7051,0,0,37.7051,162.374,67.8262)">
        <rect x="1.989" y="2.993" width="0.995" height="0.988" style="fill:rgb(218,78,56);"/>
    </g>
    <g transform="matrix(37.7051,0,0,37.7051,11.5537,105.531)">
        <rect x="1.989" y="2.993" width="0.995" height="0.988" style="fill:rgb(218,78,56);"/>
    </g>
    <g transform="matrix(37.7051,0,0,37.7051,49.2588,105.531)">
        <rect x="1.989" y="2.993" width="0.995" height="0.988" style="fill:rgb(218,78,56);"/>
    </g>
    <g transform="matrix(37.7051,0,0,37.7051,86.9639,105.531)">
        <rect x="1.989" y="2.993" width="0.995" height="0.988" style="fill:rgb(218,78,56);"/>
    </g>
    <g transform="matrix(37.7051,0,0,37.7051,124.669,105.531)">
        <rect x="1.989" y="2.993" width="0.995" height="0.988" style="fill:rgb(218,78,56);"/>
    </g>
    <g transform="matrix(37.7051,0,0,37.7051,49.2588,143.236)">
        <rect x="1.989" y="2.993" width="0.995" height="0.988" style="fill:rgb(218,78,56);"/>
    </g>
    <g transform="matrix(37.7051,0,0,37.7051,86.9639,143.236)">
        <rect x="1.989" y="2.993" width="0.995" height="0.988" style="fill:rgb(218,78,56);"/>
    </g>
    <g transform="matrix(37.7051,0,0,37.7051,124.669,143.236)">
        <rect x="1.989" y="2.993" width="0.995" height="0.988" style="fill:rgb(218,78,56);"/>
    </g>
    <g transform="matrix(37.7051,0,0,37.7051,162.374,143.236)">
        <rect x="1.989" y="2.993" width="0.995" height="0.988" style="fill:rgb(218,78,56);"/>
    </g>
    <g transform="matrix(37.7051,0,0,37.7051,86.9639,180.942)">
        <rect x="1.989" y="2.993" width="0.995" height="0.988" style="fill:rgb(218,78,56);"/>
    </g>
    <g transform="matrix(37.7051,0,0,37.7051,124.669,180.942)">
        <rect x="1.989" y="2.993" width="0.995" height="0.988" style="fill:rgb(218,78,56);"/>
    </g>
    <g transform="matrix(37.7051,0,0,37.7051,124.669,218.647)">
        <rect x="1.989" y="2.993" width="0.995" height="0.988" style="fill:rgb(218,78,56);"/>
    </g>
    <g transform="matrix(37.7051,0,0,37.7051,162.374,218.647)">
        <rect x="1.989" y="2.993" width="0.995" height="0.988" style="fill:rgb(218,78,56);"/>
    </g>
    <g transform="matrix(37.7051,0,0,37.7051,162.374,180.942)">
        <rect x="1.989" y="2.993" width="0.995" height="0.988" style="fill:rgb(72,59,58);"/>
    </g>
    <g transform="matrix(37.7051,0,0,37.7051,162.374,256.352)">
        <rect x="1.989" y="2.993" width="0.995" height="0.988" style="fill:rgb(72,59,58);"/>
    </g>
    <g transform="matrix(37.7051,0,0,37.7051,162.374,105.531)">
        <rect x="1.989" y="2.993" width="0.995" height="0.988" style="fill:rgb(72,59,58);"/>
    </g>
    <g transform="matrix(37.7051,0,0,37.7051,200.079,218.647)">
        <rect x="1.989" y="2.993" width="0.995" height="0.988" style="fill:rgb(72,59,58);"/>
    </g>
    <g transform="matrix(37.7051,0,0,37.7051,200.079,180.942)">
        <rect x="1.989" y="2.993" width="0.995" height="0.988" style="fill:rgb(72,59,58);"/>
    </g>
    <g transform="matrix(37.7051,0,0,37.7051,237.784,180.942)">
        <rect x="1.989" y="2.993" width="0.995" height="0.988" style="fill:rgb(72,59,58);"/>
    </g>
    <g transform="matrix(37.7051,0,0,37.7051,200.079,143.236)">
        <rect x="1.989" y="2.993" width="0.995" height="0.988" style="fill:rgb(72,59,58);"/>
    </g>
    <g transform="matrix(37.7051,0,0,37.7051,237.784,143.236)">
        <rect x="1.989" y="2.993" width="0.995" height="0.988" style="fill:rgb(72,59,58);"/>
    </g>
    <g transform="matrix(37.7051,0,0,37.7051,275.489,143.236)">
        <rect x="1.989" y="2.993" width="0.995" height="0.988" style="fill:rgb(72,59,58);"/>
    </g>
    <g transform="matrix(37.7051,0,0,37.7051,200.079,105.531)">
        <rect x="1.989" y="2.993" width="0.995" height="0.988" style="fill:rgb(72,59,58);"/>
    </g>
    <g transform="matrix(37.7051,0,0,37.7051,237.784,105.531)">
        <rect x="1.989" y="2.993" width="0.995" height="0.988" style="fill:rgb(72,59,58);"/>
    </g>
    <g transform="matrix(37.7051,0,0,37.7051,275.489,105.531)">
        <rect x="1.989" y="2.993" width="0.995" height="0.988" style="fill:rgb(72,59,58);"/>
    </g>
    <g transform="matrix(37.7051,0,0,37.7051,313.195,105.531)">
        <rect x="1.989" y="2.993" width="0.995" height="0.988" style="fill:rgb(72,59,58);"/>
    </g>
    <g transform="matrix(37.7051,0,0,37.7051,200.079,67.8262)">
        <rect x="1.989" y="2.993" width="0.995" height="0.988" style="fill:rgb(72,59,58);"/>
    </g>
    <g transform="matrix(37.7051,0,0,37.7051,237.784,67.8262)">
        <rect x="1.989" y="2.993" width="0.995" height="0.988" style="fill:rgb(72,59,58);"/>
    </g>
    <g transform="matrix(37.7051,0,0,37.7051,275.489,67.8262)">
        <rect x="1.989" y="2.993" width="0.995" height="0.988" style="fill:rgb(72,59,58);"/>
    </g>
    <g transform="matrix(37.7051,0,0,37.7051,313.195,67.8262)">
        <rect x="1.989" y="2.993" width="0.995" height="0.988" style="fill:rgb(72,59,58);"/>
    </g>
    <g transform="matrix(37.7051,0,0,37.7051,200.079,30.1211)">
        <rect x="1.989" y="2.993" width="0.995" height="0.988" style="fill:rgb(72,59,58);"/>
    </g>
    <g transform="matrix(37.7051,0,0,37.7051,237.784,30.1211)">
        <rect x="1.989" y="2.993" width="0.995" height="0.988" style="fill:rgb(72,59,58);"/>
    </g>
    <g transform="matrix(37.7051,0,0,37.7051,275.489,30.1211)">
        <rect x="1.989" y="2.993" width="0.995" height="0.988" style="fill:rgb(72,59,58);"/>
    </g>
    <g transform="matrix(37.7051,0,0,37.7051,313.195,30.1211)">
        <rect x="1.989" y="2.993" width="0.995" height="0.988" style="fill:rgb(72,59,58);"/>
    </g>
    <g transform="matrix(37.7051,0,0,37.7051,313.195,-7.58396)">
        <rect x="1.989" y="2.993" width="0.995" height="0.988" style="fill:rgb(72,59,58);"/>
    </g>
    <g transform="matrix(37.7051,0,0,37.7051,275.489,-7.58396)">
        <rect x="1.989" y="2.993" width="0.995" height="0.988" style="fill:rgb(72,59,58);"/>
    </g>
    <g transform="matrix(37.7051,0,0,37.7051,237.784,-7.58396)">
        <rect x="1.989" y="2.993" width="0.995" height="0.988" style="fill:rgb(72,59,58);"/>
    </g>
    <g transform="matrix(37.7051,0,0,37.7051,10.9357,-82.3761)">
        <rect x="1.989" y="2.993" width="0.995" height="0.988" style="fill:rgb(253,247,237);"/>
    </g>
    <g transform="matrix(37.7051,0,0,37.7051,48.8868,-82.3761)">
        <rect x="1.989" y="2.993" width="0.995" height="0.988" style="fill:rgb(253,247,237);"/>
    </g>
    <g transform="matrix(37.7051,0,0,37.7051,87.003,-82.3761)">
        <rect x="1.989" y="2.993" width="0.995" height="0.988" style="fill:rgb(253,247,237);"/>
    </g>
    <g transform="matrix(37.7051,0,0,37.7051,124.529,-43.7852)">
        <rect x="1.989" y="2.993" width="0.995" height="0.988" style="fill:rgb(253,247,237);"/>
    </g>
    <g transform="matrix(37.7051,0,0,37.7051,163.189,-7.71567)">
        <rect x="1.989" y="2.993" width="0.995" height="0.988" style="fill:rgb(253,247,237);"/>
    </g>
    <g transform="matrix(37.7051,0,0,37.7051,200.017,-43.6202)">
        <rect x="1.989" y="2.993" width="0.995" height="0.988" style="fill:rgb(253,247,237);"/>
    </g>
    <g transform="matrix(37.7051,0,0,37.7051,237.745,-82.408)">
        <rect x="1.989" y="2.993" width="0.995" height="0.988" style="fill:rgb(253,247,237);"/>
    </g>
    <g transform="matrix(37.7051,0,0,37.7051,275.581,-82.3414)">
        <rect x="1.989" y="2.993" width="0.995" height="0.988" style="fill:rgb(253,247,237);"/>
    </g>
    <g transform="matrix(37.7051,0,0,37.7051,312.131,-82.9001)">
        <rect x="1.989" y="2.993" width="0.995" height="0.988" style="fill:rgb(253,247,237);"/>
    </g>
    <g transform="matrix(37.7051,0,0,37.7051,350.528,-45.3745)">
        <rect x="1.989" y="2.993" width="0.995" height="0.988" style="fill:rgb(253,247,237);"/>
    </g>
    <g transform="matrix(37.7051,0,0,37.7051,388.473,-7.45514)">
        <rect x="1.989" y="2.993" width="0.995" height="0.988" style="fill:rgb(253,247,237);"/>
    </g>
    <g transform="matrix(37.7051,0,0,37.7051,388.473,30.25)">
        <rect x="1.989" y="2.993" width="0.995" height="0.988" style="fill:rgb(253,247,237);"/>
    </g>
    <g transform="matrix(37.7051,0,0,37.7051,388.473,67.9551)">
        <rect x="1.989" y="2.993" width="0.995" height="0.988" style="fill:rgb(253,247,237);"/>
    </g>
    <g transform="matrix(37.7051,0,0,37.7051,388.473,105.66)">
        <rect x="1.989" y="2.993" width="0.995" height="0.988" style="fill:rgb(253,247,237);"/>
    </g>
    <g transform="matrix(37.7051,0,0,37.7051,350.768,143.365)">
        <rect x="1.989" y="2.993" width="0.995" height="0.988" style="fill:rgb(253,247,237);"/>
    </g>
    <g transform="matrix(37.7051,0,0,37.7051,313.063,181.07)">
        <rect x="1.989" y="2.993" width="0.995" height="0.988" style="fill:rgb(253,247,237);"/>
    </g>
    <g transform="matrix(37.7051,0,0,37.7051,275.358,218.775)">
        <rect x="1.989" y="2.993" width="0.995" height="0.988" style="fill:rgb(253,247,237);"/>
    </g>
    <g transform="matrix(37.7051,0,0,37.7051,237.653,256.481)">
        <rect x="1.989" y="2.993" width="0.995" height="0.988" style="fill:rgb(253,247,237);"/>
    </g>
    <g transform="matrix(37.7051,0,0,37.7051,199.948,294.186)">
        <rect x="1.989" y="2.993" width="0.995" height="0.988" style="fill:rgb(253,247,237);"/>
    </g>
    <g transform="matrix(37.7051,0,0,37.7051,162.242,331.891)">
        <rect x="1.989" y="2.993" width="0.995" height="0.988" style="fill:rgb(253,247,237);"/>
    </g>
    <g transform="matrix(37.7051,0,0,37.7051,124.537,294.186)">
        <rect x="1.989" y="2.993" width="0.995" height="0.988" style="fill:rgb(253,247,237);"/>
    </g>
    <g transform="matrix(37.7051,0,0,37.7051,86.8322,256.481)">
        <rect x="1.989" y="2.993" width="0.995" height="0.988" style="fill:rgb(253,247,237);"/>
    </g>
    <g transform="matrix(37.7051,0,0,37.7051,49.1271,218.775)">
        <rect x="1.989" y="2.993" width="0.995" height="0.988" style="fill:rgb(253,247,237);"/>
    </g>
    <g transform="matrix(37.7051,0,0,37.7051,11.422,181.07)">
        <rect x="1.989" y="2.993" width="0.995" height="0.988" style="fill:rgb(253,247,237);"/>
    </g>
    <g transform="matrix(37.7051,0,0,37.7051,-26.2831,143.365)">
        <rect x="1.989" y="2.993" width="0.995" height="0.988" style="fill:rgb(253,247,237);"/>
    </g>
    <g transform="matrix(37.7051,0,0,37.7051,-63.9882,105.66)">
        <rect x="1.989" y="2.993" width="0.995" height="0.988" style="fill:rgb(253,247,237);"/>
    </g>
    <g transform="matrix(37.7051,0,0,37.7051,-63.9882,67.9551)">
        <rect x="1.989" y="2.993" width="0.995" height="0.988" style="fill:rgb(253,247,237);"/>
    </g>
    <g transform="matrix(37.7051,0,0,37.7051,-63.9882,30.25)">
        <rect x="1.989" y="2.993" width="0.995" height="0.988" style="fill:rgb(253,247,237);"/>
    </g>
    <g transform="matrix(37.7051,0,0,37.7051,-63.9882,-7.45514)">
        <rect x="1.989" y="2.993" width="0.995" height="0.988" style="fill:rgb(253,247,237);"/>
    </g>
</svg>
